<svg width="152" height="36" viewBox="0 0 152 36" fill="none" xmlns="http://www.w3.org/2000/svg">
<g filter="url(#filter0_d_0_9882)">
<path fill-rule="evenodd" clip-rule="evenodd" d="M16.5243 0.518775C14.8164 0.685242 13.4364 1.02947 12.0923 1.62437C11.1036 2.06188 9.91875 2.74922 9.63794 3.04812C9.35856 3.34549 9.54213 3.83176 9.95821 3.89671C10.1169 3.92145 10.2141 3.87729 10.7204 3.55032C11.4004 3.11117 12.4553 2.58196 13.2003 2.30607C13.7326 2.10894 15.0449 1.75454 15.2425 1.75454C15.3473 1.75454 15.3475 1.75728 15.2527 1.89963C14.3981 3.18219 13.7979 4.76883 13.3092 7.03694L13.2226 7.43879L12.8696 7.5259C12.0975 7.71637 11.5125 8.26848 11.2554 9.04901C11.227 9.13527 11.055 9.14134 8.63793 9.14134C7.21507 9.14134 6.05091 9.1262 6.05091 9.10762C6.05091 9.01323 6.66196 7.84068 6.92693 7.42655C7.30519 6.8355 7.33104 6.63035 7.05789 6.38633C6.90657 6.25109 6.84958 6.23157 6.67452 6.25505C6.40321 6.29146 6.36248 6.33082 6.0164 6.89026C3.2319 11.3917 3.33906 17.1322 6.28966 21.5305L6.51412 21.8651L6.35894 22.1659C6.14478 22.5811 6.06537 23.0778 6.14177 23.5238C6.39672 25.0121 7.9986 25.8238 9.32791 25.1382L9.62649 24.9842L10.0943 25.2874C12.2392 26.6774 14.4967 27.3912 17.0474 27.4861C21.7553 27.6612 26.1958 25.3487 28.8259 21.3522C30.3189 19.0836 31.0932 16.2903 30.991 13.5425C30.8962 10.9917 30.1823 8.73422 28.7923 6.58941L28.4891 6.12156L28.6431 5.82298C28.8562 5.40984 28.9354 4.91255 28.8591 4.46723C28.604 2.97768 27.0023 2.1673 25.6708 2.85401L25.37 3.00918L25.0354 2.78473C23.3563 1.6583 21.4693 0.933914 19.3999 0.621241C18.8744 0.541833 16.9802 0.474349 16.5243 0.518775ZM17.9623 1.67354C19.12 2.21252 20.2774 4.82956 20.8217 8.13885C20.8813 8.50159 20.9431 8.87578 20.959 8.97034L20.9878 9.14229L18.2627 9.12862L15.5376 9.11496L15.4412 8.86101C15.2617 8.38789 14.9285 8.03137 14.2873 7.62641C14.2562 7.60684 14.4224 6.84046 14.6339 6.02833C15.3295 3.35568 16.4874 1.54454 17.5005 1.54454C17.602 1.54454 17.8099 1.60258 17.9623 1.67354ZM20.5691 1.93261C20.9562 2.03054 21.5104 2.19859 21.8006 2.30607C23.004 2.7517 24.7245 3.71742 24.651 3.90599C24.5231 4.23407 24.4549 4.66219 24.4809 4.97312C24.6094 6.50905 26.1192 7.41837 27.5894 6.84526C27.6602 6.81761 27.7456 6.91095 27.9842 7.27659C28.2724 7.71817 28.95 8.9935 28.95 9.09438C28.95 9.12134 27.4813 9.14134 25.5042 9.14134H22.0583L21.914 8.25756C21.4938 5.68363 20.7967 3.53555 19.9577 2.2294C19.8365 2.04077 19.7194 1.85679 19.6975 1.82049C19.6347 1.71681 19.8003 1.73813 20.5691 1.93261ZM27.2152 3.80142C28.0757 4.25096 28.0255 5.46767 27.1297 5.87685C26.3619 6.22756 25.4504 5.56206 25.5322 4.71052C25.5878 4.1315 26.1071 3.654 26.6812 3.654C26.8543 3.654 27.0212 3.70006 27.2152 3.80142ZM7.86595 4.57207C7.66857 4.76946 7.63923 4.93951 7.76175 5.17647C7.94336 5.52761 8.48502 5.52761 8.66663 5.17647C8.80666 4.90564 8.72135 4.59766 8.47035 4.46787C8.2334 4.34535 8.06334 4.37469 7.86595 4.57207ZM13.8963 8.64183C14.4481 8.91683 14.6942 9.57621 14.447 10.1175C14.0358 11.0176 12.8229 11.0633 12.3669 10.1958C12.2388 9.95199 12.2182 9.85923 12.2358 9.60708C12.2946 8.76546 13.1484 8.26917 13.8963 8.64183ZM11.2554 10.2889C11.4462 10.8683 11.8904 11.3968 12.3927 11.6422L12.6932 11.789L12.6631 13.2484C12.636 14.5536 12.6737 15.8002 12.7863 17.3328L12.8202 17.7945H9.22861H5.63699L5.58148 17.623C5.46609 17.2665 5.26168 16.3439 5.17188 15.7742C5.10218 15.3317 5.07907 14.877 5.08013 13.9691C5.08187 12.5275 5.18444 11.7756 5.55705 10.4736L5.6363 10.1966H8.43062C11.0452 10.1966 11.227 10.2026 11.2554 10.2889ZM21.113 10.2626C21.2222 10.5993 21.3322 13.9934 21.2752 15.269L21.2359 16.1467L21.0617 16.175C20.7422 16.2269 20.303 16.4858 20.0053 16.798C19.7423 17.0736 19.4545 17.5587 19.4532 17.7285C19.4524 17.8251 13.9192 17.8251 13.8879 17.7285C13.7788 17.3922 13.6687 13.998 13.7256 12.7247L13.7647 11.8495L14.0223 11.7835C14.3475 11.7002 14.8433 11.3821 15.065 11.1145C15.2184 10.9295 15.4339 10.5335 15.5145 10.2889C15.543 10.2026 15.7237 10.1966 18.3183 10.1966C20.4904 10.1966 21.0963 10.2109 21.113 10.2626ZM29.4194 10.3681C29.5355 10.7267 29.7394 11.6483 29.8283 12.2168C29.9593 13.053 29.9596 14.9022 29.8291 15.7367C29.732 16.3575 29.5881 17.0247 29.445 17.5174L29.3646 17.7945H26.5573H23.75L23.5988 17.4476C23.4073 17.0078 23.03 16.5934 22.6241 16.3771L22.3075 16.2084L22.3378 14.7458C22.3649 13.4373 22.3274 12.1921 22.2146 10.6583L22.1807 10.1966H25.7723H29.3639L29.4194 10.3681ZM22.0942 17.3064C22.2817 17.4014 22.4351 17.5304 22.539 17.6803C22.6823 17.887 22.6976 17.9489 22.6976 18.3221C22.6976 18.6953 22.6823 18.7572 22.539 18.9639C22.3535 19.2314 21.9075 19.483 21.6197 19.4825C20.9527 19.4815 20.4345 18.9742 20.4345 18.3221C20.4345 17.4484 21.3135 16.9105 22.0942 17.3064ZM13.0869 19.7335C13.5154 22.3585 14.2154 24.4896 15.093 25.8408C15.2916 26.1465 15.3173 26.2128 15.2423 26.2253C15.0998 26.2492 13.7827 25.9007 13.2003 25.685C11.9969 25.2394 10.2764 24.2736 10.3499 24.0851C10.4778 23.757 10.546 23.3289 10.52 23.0179C10.3915 21.482 8.88169 20.5727 7.41156 21.1458C7.34075 21.1734 7.25533 21.0801 7.01668 20.7145C6.72849 20.2729 6.05091 18.9976 6.05091 18.8967C6.05091 18.8697 7.51957 18.8497 9.49675 18.8497H12.9426L13.0869 19.7335ZM19.4532 18.9157C19.4535 18.952 19.512 19.1068 19.5832 19.2598C19.7432 19.6034 20.1687 20.0614 20.483 20.2281C20.6128 20.2969 20.719 20.3805 20.719 20.4137C20.719 20.5354 20.3984 21.8816 20.2392 22.4285C19.6458 24.4663 18.7874 25.9333 17.9641 26.3167C17.6125 26.4803 17.3888 26.4805 17.0386 26.3175C15.8796 25.7779 14.7659 23.2611 14.1776 19.8522C14.0899 19.3444 14.0182 18.9111 14.0182 18.8893C14.0181 18.8675 15.2409 18.8497 16.7354 18.8497C18.8738 18.8497 19.4528 18.8637 19.4532 18.9157ZM28.95 18.8842C28.95 18.9547 28.3256 20.1578 28.1046 20.5129C27.1224 22.0916 25.5966 23.6175 24.0178 24.5997C23.4646 24.9439 22.5003 25.4155 21.851 25.6596C21.2754 25.8759 19.969 26.2365 19.7609 26.2365C19.6534 26.2365 19.6532 26.2341 19.7483 26.0914C20.5949 24.8207 21.2211 23.1665 21.6924 20.9552L21.7778 20.5544L22.1058 20.4633C22.8119 20.2669 23.3205 19.8354 23.5988 19.1966L23.75 18.8497H26.35C27.78 18.8497 28.95 18.8652 28.95 18.8842ZM8.85368 22.1629C9.73682 22.6243 9.64876 23.9043 8.70921 24.2631C7.95634 24.5506 7.11408 23.9219 7.17054 23.1144C7.21328 22.5032 7.72328 22.0155 8.31972 22.0155C8.49283 22.0155 8.65967 22.0615 8.85368 22.1629Z" fill="#8E2424"/>
</g>
<path d="M51.8097 14.4545C51.8097 15.8523 51.554 17.054 51.0426 18.0597C50.5313 19.0611 49.8303 19.8324 48.9396 20.3736C48.0533 20.9105 47.0455 21.179 45.9162 21.179C44.7827 21.179 43.7706 20.9105 42.88 20.3736C41.9936 19.8324 41.2947 19.0589 40.7834 18.0533C40.272 17.0476 40.0163 15.848 40.0163 14.4545C40.0163 13.0568 40.272 11.8572 40.7834 10.8558C41.2947 9.85014 41.9936 9.07883 42.88 8.5419C43.7706 8.00071 44.7827 7.73011 45.9162 7.73011C47.0455 7.73011 48.0533 8.00071 48.9396 8.5419C49.8303 9.07883 50.5313 9.85014 51.0426 10.8558C51.554 11.8572 51.8097 13.0568 51.8097 14.4545ZM49.8537 14.4545C49.8537 13.3892 49.6811 12.4922 49.3359 11.7635C48.995 11.0305 48.5263 10.4766 47.9297 10.1016C47.3374 9.7223 46.6662 9.53267 45.9162 9.53267C45.1619 9.53267 44.4886 9.7223 43.8963 10.1016C43.304 10.4766 42.8352 11.0305 42.4901 11.7635C42.1491 12.4922 41.9787 13.3892 41.9787 14.4545C41.9787 15.5199 42.1491 16.419 42.4901 17.152C42.8352 17.8807 43.304 18.4347 43.8963 18.8139C44.4886 19.1889 45.1619 19.3764 45.9162 19.3764C46.6662 19.3764 47.3374 19.1889 47.9297 18.8139C48.5263 18.4347 48.995 17.8807 49.3359 17.152C49.6811 16.419 49.8537 15.5199 49.8537 14.4545ZM54.1188 24.6818V11.1818H55.9853V12.7734H56.1451C56.2559 12.5689 56.4157 12.3324 56.6245 12.0639C56.8333 11.7955 57.123 11.5611 57.4938 11.3608C57.8645 11.1562 58.3546 11.054 58.964 11.054C59.7566 11.054 60.464 11.2543 61.0861 11.6548C61.7083 12.0554 62.1962 12.6328 62.5499 13.3871C62.9078 14.1413 63.0868 15.049 63.0868 16.1101C63.0868 17.1712 62.91 18.081 62.5563 18.8395C62.2026 19.5937 61.7168 20.1754 61.0989 20.5845C60.481 20.9893 59.7757 21.1918 58.9831 21.1918C58.3865 21.1918 57.8986 21.0916 57.5194 20.8913C57.1444 20.6911 56.8503 20.4567 56.6373 20.1882C56.4242 19.9197 56.2601 19.6811 56.1451 19.4723H56.03V24.6818H54.1188ZM55.9917 16.0909C55.9917 16.7812 56.0918 17.3864 56.2921 17.9062C56.4924 18.4261 56.7821 18.8331 57.1614 19.1271C57.5407 19.4169 58.0051 19.5618 58.5549 19.5618C59.1259 19.5618 59.6032 19.4105 59.9867 19.108C60.3702 18.8011 60.66 18.3857 60.856 17.8615C61.0563 17.3374 61.1564 16.7472 61.1564 16.0909C61.1564 15.4432 61.0584 14.8615 60.8624 14.3459C60.6706 13.8303 60.3809 13.4233 59.9931 13.125C59.6096 12.8267 59.1301 12.6776 58.5549 12.6776C58.0009 12.6776 57.5321 12.8203 57.1486 13.1058C56.7694 13.3913 56.4817 13.7898 56.2857 14.3011C56.0897 14.8125 55.9917 15.4091 55.9917 16.0909ZM69.8113 11.1818V12.7159H64.4483V11.1818H69.8113ZM65.8865 8.82955H67.7978V18.1172C67.7978 18.4879 67.8532 18.767 67.964 18.9545C68.0748 19.1378 68.2175 19.2635 68.3922 19.3317C68.5712 19.3956 68.7651 19.4276 68.9739 19.4276C69.1273 19.4276 69.2615 19.4169 69.3766 19.3956C69.4917 19.3743 69.5811 19.3572 69.6451 19.3445L69.9902 20.9233C69.8794 20.9659 69.7218 21.0085 69.5172 21.0511C69.3127 21.098 69.057 21.1236 68.7502 21.1278C68.2473 21.1364 67.7786 21.0469 67.3439 20.8594C66.9093 20.6719 66.5577 20.3821 66.2892 19.9901C66.0208 19.598 65.8865 19.1058 65.8865 18.5135V8.82955ZM71.9254 21V11.1818H73.8366V21H71.9254ZM72.8906 9.6669C72.5582 9.6669 72.2727 9.55611 72.0341 9.33452C71.7997 9.10866 71.6825 8.8402 71.6825 8.52912C71.6825 8.21378 71.7997 7.94531 72.0341 7.72372C72.2727 7.49787 72.5582 7.38494 72.8906 7.38494C73.223 7.38494 73.5064 7.49787 73.7408 7.72372C73.9794 7.94531 74.0987 8.21378 74.0987 8.52912C74.0987 8.8402 73.9794 9.10866 73.7408 9.33452C73.5064 9.55611 73.223 9.6669 72.8906 9.6669ZM76.4078 21V11.1818H78.2424V12.7798H78.3638C78.5684 12.2386 78.9029 11.8168 79.3674 11.5142C79.8319 11.2074 80.388 11.054 81.0357 11.054C81.6919 11.054 82.2417 11.2074 82.6848 11.5142C83.1323 11.821 83.4625 12.2429 83.6756 12.7798H83.7779C84.0123 12.2557 84.3851 11.8381 84.8965 11.527C85.4078 11.2116 86.0172 11.054 86.7246 11.054C87.6152 11.054 88.3418 11.3331 88.9043 11.8913C89.4711 12.4496 89.7544 13.2912 89.7544 14.4162V21H87.8432V14.5952C87.8432 13.9304 87.6621 13.4489 87.2999 13.1506C86.9377 12.8523 86.5051 12.7031 86.0023 12.7031C85.3801 12.7031 84.8965 12.8949 84.5513 13.2784C84.2061 13.6577 84.0336 14.1456 84.0336 14.7422V21H82.1287V14.4737C82.1287 13.9411 81.9625 13.5128 81.6301 13.1889C81.2978 12.8651 80.8652 12.7031 80.3326 12.7031C79.9703 12.7031 79.6358 12.799 79.329 12.9908C79.0265 13.1783 78.7814 13.4403 78.5939 13.777C78.4107 14.1136 78.3191 14.5036 78.3191 14.9467V21H76.4078ZM98.5355 16.9283V11.1818H100.453V21H98.5739V19.2997H98.4716C98.2457 19.8239 97.8835 20.2607 97.3849 20.6101C96.8906 20.9553 96.2749 21.1278 95.5376 21.1278C94.907 21.1278 94.3487 20.9893 93.8629 20.7124C93.3814 20.4311 93.0021 20.0156 92.7251 19.4659C92.4524 18.9162 92.3161 18.2365 92.3161 17.4268V11.1818H94.2273V17.1967C94.2273 17.8658 94.4126 18.3984 94.7834 18.7947C95.1541 19.1911 95.6357 19.3892 96.228 19.3892C96.5859 19.3892 96.9418 19.2997 97.2955 19.1207C97.6534 18.9418 97.9496 18.6712 98.1839 18.3089C98.4226 17.9467 98.5398 17.4865 98.5355 16.9283ZM110.378 13.5788L108.646 13.8857C108.574 13.6641 108.459 13.4531 108.301 13.2528C108.148 13.0526 107.939 12.8885 107.675 12.7607C107.41 12.6328 107.08 12.5689 106.684 12.5689C106.143 12.5689 105.691 12.6903 105.329 12.9332C104.966 13.1719 104.785 13.4808 104.785 13.8601C104.785 14.1882 104.907 14.4524 105.15 14.6527C105.393 14.853 105.785 15.017 106.326 15.1449L107.885 15.5028C108.789 15.7116 109.462 16.0334 109.905 16.468C110.349 16.9027 110.57 17.4673 110.57 18.1619C110.57 18.75 110.4 19.2741 110.059 19.7344C109.722 20.1903 109.251 20.5483 108.646 20.8082C108.045 21.0682 107.349 21.1982 106.556 21.1982C105.456 21.1982 104.559 20.9638 103.865 20.495C103.17 20.022 102.744 19.3509 102.586 18.4815L104.434 18.2003C104.549 18.6818 104.785 19.0462 105.143 19.2933C105.501 19.5362 105.968 19.6577 106.543 19.6577C107.17 19.6577 107.67 19.5277 108.045 19.2678C108.42 19.0036 108.608 18.6818 108.608 18.3026C108.608 17.9957 108.493 17.7379 108.263 17.5291C108.037 17.3203 107.689 17.1626 107.221 17.0561L105.559 16.6918C104.643 16.483 103.965 16.1506 103.526 15.6946C103.091 15.2386 102.874 14.6612 102.874 13.9624C102.874 13.3828 103.036 12.8757 103.36 12.4411C103.684 12.0064 104.131 11.6676 104.702 11.4247C105.273 11.1776 105.927 11.054 106.665 11.054C107.726 11.054 108.561 11.2841 109.17 11.7443C109.78 12.2003 110.182 12.8118 110.378 13.5788ZM110.843 9.60938V7.90909H120.975V9.60938H116.89V21H114.922V9.60938H110.843ZM125.868 21.1982C124.901 21.1982 124.067 20.9915 123.369 20.5781C122.674 20.1605 122.137 19.5746 121.758 18.8203C121.383 18.0618 121.195 17.1733 121.195 16.1548C121.195 15.1491 121.383 14.2628 121.758 13.4957C122.137 12.7287 122.665 12.13 123.343 11.6996C124.025 11.2692 124.822 11.054 125.734 11.054C126.288 11.054 126.825 11.1456 127.344 11.3288C127.864 11.5121 128.331 11.7997 128.744 12.1918C129.158 12.5838 129.484 13.093 129.722 13.7195C129.961 14.3416 130.08 15.098 130.08 15.9886V16.6662H122.276V15.2344H128.207C128.207 14.7315 128.105 14.2862 127.901 13.8984C127.696 13.5064 127.408 13.1974 127.038 12.9716C126.671 12.7457 126.241 12.6328 125.746 12.6328C125.21 12.6328 124.741 12.7649 124.34 13.0291C123.944 13.2891 123.637 13.63 123.42 14.0518C123.207 14.4695 123.1 14.9233 123.1 15.4134V16.532C123.1 17.1882 123.215 17.7464 123.445 18.2067C123.68 18.6669 124.006 19.0185 124.423 19.2614C124.841 19.5 125.329 19.6193 125.887 19.6193C126.249 19.6193 126.58 19.5682 126.878 19.4659C127.176 19.3594 127.434 19.2017 127.651 18.9929C127.869 18.7841 128.035 18.5263 128.15 18.2195L129.959 18.5455C129.814 19.0781 129.554 19.5447 129.179 19.9453C128.808 20.3416 128.342 20.6506 127.779 20.8722C127.221 21.0895 126.584 21.1982 125.868 21.1982ZM136.336 21.1982C135.386 21.1982 134.568 20.983 133.882 20.5526C133.2 20.1179 132.676 19.5192 132.309 18.7564C131.943 17.9936 131.76 17.12 131.76 16.1357C131.76 15.1385 131.947 14.2585 132.322 13.4957C132.697 12.7287 133.226 12.13 133.907 11.6996C134.589 11.2692 135.393 11.054 136.317 11.054C137.063 11.054 137.728 11.1925 138.312 11.4695C138.895 11.7422 139.366 12.1257 139.724 12.62C140.086 13.1143 140.302 13.6918 140.37 14.3523H138.51C138.407 13.892 138.173 13.4957 137.807 13.1634C137.444 12.831 136.959 12.6648 136.349 12.6648C135.817 12.6648 135.35 12.8054 134.949 13.0866C134.553 13.3636 134.244 13.7599 134.023 14.2756C133.801 14.7869 133.69 15.392 133.69 16.0909C133.69 16.8068 133.799 17.4247 134.016 17.9446C134.233 18.4645 134.54 18.8672 134.937 19.1527C135.337 19.4382 135.808 19.581 136.349 19.581C136.711 19.581 137.04 19.5149 137.334 19.3828C137.632 19.2464 137.881 19.0526 138.081 18.8011C138.286 18.5497 138.429 18.2472 138.51 17.8935H140.37C140.302 18.5284 140.095 19.0952 139.75 19.5938C139.405 20.0923 138.942 20.4844 138.363 20.7699C137.787 21.0554 137.112 21.1982 136.336 21.1982ZM144.325 15.1705V21H142.414V7.90909H144.299V12.7798H144.421C144.651 12.2514 145.002 11.8317 145.475 11.5206C145.949 11.2095 146.566 11.054 147.329 11.054C148.002 11.054 148.591 11.1925 149.093 11.4695C149.6 11.7464 149.993 12.1598 150.27 12.7095C150.551 13.255 150.691 13.9368 150.691 14.755V21H148.78V14.9851C148.78 14.2649 148.595 13.7067 148.224 13.3104C147.853 12.9098 147.338 12.7095 146.677 12.7095C146.225 12.7095 145.821 12.8054 145.463 12.9972C145.109 13.1889 144.83 13.4702 144.625 13.8409C144.425 14.2074 144.325 14.6506 144.325 15.1705Z" fill="#3A404E"/>
<defs>
<filter id="filter0_d_0_9882" x="0" y="0.504639" width="35" height="34.9907" filterUnits="userSpaceOnUse" color-interpolation-filters="sRGB">
<feFlood flood-opacity="0" result="BackgroundImageFix"/>
<feColorMatrix in="SourceAlpha" type="matrix" values="0 0 0 0 0 0 0 0 0 0 0 0 0 0 0 0 0 0 127 0" result="hardAlpha"/>
<feOffset dy="4"/>
<feGaussianBlur stdDeviation="2"/>
<feComposite in2="hardAlpha" operator="out"/>
<feColorMatrix type="matrix" values="0 0 0 0 0 0 0 0 0 0 0 0 0 0 0 0 0 0 0.25 0"/>
<feBlend mode="normal" in2="BackgroundImageFix" result="effect1_dropShadow_0_9882"/>
<feBlend mode="normal" in="SourceGraphic" in2="effect1_dropShadow_0_9882" result="shape"/>
</filter>
</defs>
</svg>
